<svg xmlns="http://www.w3.org/2000/svg" version="1.1" xmlns:xlink="http://www.w3.org/1999/xlink" viewBox="0 0 200 200"><rect width="200" height="200" fill="url('#gradient')"></rect><defs><linearGradient id="gradient" gradientTransform="rotate(45 0.5 0.5)"><stop offset="0%" stop-color="#277f7e"></stop><stop offset="100%" stop-color="#155e6a"></stop></linearGradient></defs><g><g fill="#c78232" transform="matrix(6.727007299270073,0,0,6.727007299270073,2.7916185697499856,149.78219831076854)" stroke="#c08e51" stroke-width="0.65" style="--darkreader-inline-fill: var(--darkreader-text-c78232, #d2934b); --darkreader-inline-stroke: var(--darkreader-text-c08e51, #c59860);" data-darkreader-inline-fill="" data-darkreader-inline-stroke=""><path d="M1.07-14.22L5.58-14.22L8.75-4.33L11.91-14.22L16.43-14.22L16.43 0L12.99 0L12.99-3.32L13.32-10.12L9.88 0L7.62 0L4.17-10.13L4.50-3.32L4.50 0L1.07 0L1.07-14.22ZM18.04-5.36L18.04-5.36Q18.04-7.87 19.12-9.32Q20.21-10.76 22.15-10.76L22.15-10.76Q23.56-10.76 24.53-9.65L24.53-9.65L24.53-15L27.83-15L27.83 0L24.87 0L24.71-1.13Q23.69 0.20 22.13 0.20L22.13 0.20Q20.24 0.20 19.14-1.25Q18.04-2.70 18.04-5.36ZM21.34-5.76L21.33-5.16Q21.33-2.34 22.97-2.34L22.97-2.34Q24.06-2.34 24.53-3.26L24.53-3.26L24.53-7.29Q24.08-8.22 22.99-8.22L22.99-8.22Q21.46-8.22 21.34-5.76L21.34-5.76Z"></path></g></g></svg>